# xmcd
#
# Track frame offsets:
#	150
#	11932
#	27689
#	56622
#	67708
#	84718
#	101009
#	118900
#	131774
#	153275
#	171876
#	191289
#	206139
#	225677
#	245341
#	259400
#	274033
#	286495
#
# Disc length: 3979 seconds
#
# Revision: 1
# Processed by: cddbd v1.5.2PL0 Copyright (c) Steve Scherf et al.
# Submitted via: audiograbber 1.83.01
#
DISCID=0b0f8912
DTITLE=Various Artist - Country Music Messe 2011
DYEAR=2011
DGENRE=Country
TTITLE0=Travis Truitt - Grab The Keg
TTITLE1=Dean Wolf - Heaven´s Gate
TTITLE2=David Lee Howard - Blue Highway
TTITLE3=The Lennerockers - Nothing Lasts Forever
TTITLE4=Fairplay - Mit ´nem Eis auf´m Karussell
TTITLE5=Gregg Stocki and Daniel T.Coates - Walkin´ Down this Road
TTITLE6=Two The Road - Further On Up The Road
TTITLE7=Fred Heyden - Great Great Snowy Mountains
TTITLE8=DocRock and His Restless Hearts - From L.A. Down To Georgia
TTITLE9=Cora Lee - Not My Man
TTITLE10=Smokestack Lightnin - Leaving Lousiana In The Broad Daylight
TTITLE11=Henry Eye and Caty Andrew - For Everything You Do
TTITLE12=Johnny Kendel - Kupfer In Montana
TTITLE13=Michael Lonstar - A Long Haul
TTITLE14=Natasha James - Tequila Time
TTITLE15=The Lazy Boys - Waves
TTITLE16=Rebound - Coalminer´s Daughter
TTITLE17=Ulli Möhring - Publikum
EXTD=Die nunmehr 5. Doppel CD zur 15 Country Music Messe in Berlin mit 36 Künst
EXTD=lern der diesjährigen Messe
EXTT0=
EXTT1=
EXTT2=
EXTT3=
EXTT4=
EXTT5=
EXTT6=
EXTT7=
EXTT8=
EXTT9=
EXTT10=
EXTT11=
EXTT12=
EXTT13=
EXTT14=
EXTT15=
EXTT16=
EXTT17=
PLAYORDER=
